<?xml version="1.0" encoding="UTF-8"?>
<svg version="1.1" xmlns="http://www.w3.org/2000/svg" width="120" height="120">
<path d="M0 0 C28.38 0 56.76 0 86 0 C85.35672159 11.57901142 84.63378925 23.09219637 83.58984375 34.6328125 C83.45649226 36.13163996 83.32340569 37.63049101 83.19056702 39.12936401 C82.84631466 43.00587265 82.49855422 46.88205813 82.14996338 50.75817871 C81.79244182 54.74093399 81.43837526 58.7239964 81.08398438 62.70703125 C80.39263027 70.47165209 79.69755548 78.23593355 79 86 C75.39667716 87.10693278 71.79218753 88.21002018 68.1875 89.3125 C66.68026367 89.7755957 66.68026367 89.7755957 65.14257812 90.24804688 C60.0996309 91.78849699 55.04901072 93.29889716 49.97509766 94.734375 C49.10809235 94.98026367 48.24108704 95.22615234 47.34780884 95.47949219 C39.26584166 97.27125947 30.29328401 93.24475868 22.625 91 C21.32957254 90.62709848 20.03400056 90.25469865 18.73828125 89.8828125 C9.30944549 87.15472274 9.30944549 87.15472274 7 86 C6.59765206 83.52276732 6.32825065 81.13428989 6.13037109 78.63793945 C6.02752052 77.48174858 6.02752052 77.48174858 5.92259216 76.30220032 C5.69704376 73.73993232 5.4851277 71.1767285 5.2734375 68.61328125 C5.12010713 66.83539939 4.96601391 65.05758316 4.81118774 63.27983093 C4.4878542 59.54517249 4.17069677 55.81006009 3.85839844 52.07446289 C3.45863976 47.29327608 3.04856042 42.51305223 2.63443565 37.7330904 C2.23973869 33.17262167 1.85009672 28.61172533 1.4609375 24.05078125 C1.38645763 23.18245478 1.31197777 22.3141283 1.23524094 21.41948891 C1.02434273 18.94956067 0.81701552 16.47935961 0.61083984 14.0090332 C0.54852676 13.28411682 0.48621368 12.55920044 0.42201233 11.81231689 C0.09471177 7.83895349 0 4.00239616 0 0 Z " fill="#0277BD" transform="translate(17,12)"/>
<path d="M0 0 C14.85 0 29.7 0 45 0 C45 21.56892123 45 21.56892123 44.47509766 31.36230469 C44.4071463 32.72862424 44.35157529 34.09560462 44.30712891 35.46289062 C44.2403524 37.48418222 44.1325433 39.50398838 44.0234375 41.5234375 C43.97106934 42.69825684 43.91870117 43.87307617 43.86474609 45.08349609 C43 48 43 48 40.1262207 49.82519531 C39.09456787 50.21288086 38.06291504 50.60056641 37 51 C35.99582031 51.42023438 34.99164063 51.84046875 33.95703125 52.2734375 C25.88990335 55.09943758 20.8893183 55.19053314 13 52 C12.0409375 51.63519531 11.081875 51.27039063 10.09375 50.89453125 C7.71367025 49.96857326 5.35436534 48.98951587 3 48 C3 43.71 3 39.42 3 35 C5.97 35 8.94 35 12 35 C12 36.98 12 38.96 12 41 C19.83613718 42.71415501 25.32861576 43.32881307 33 41 C33.33 37.37 33.66 33.74 34 30 C26.74 30 19.48 30 12 30 C12 26.7 12 23.4 12 20 C19.59 20 27.18 20 35 20 C35 16.37 35 12.74 35 9 C23.45 9 11.9 9 0 9 C0 6.03 0 3.06 0 0 Z " fill="#FCFEFE" transform="translate(37,33)"/>
<path d="M0 0 C11.22 0 22.44 0 34 0 C33.41004061 9.4393502 32.81475875 18.86373095 32.0625 28.2890625 C31.97750244 29.36199554 31.89250488 30.43492859 31.80493164 31.54037476 C31.62750403 33.77355535 31.44936128 36.00667924 31.27050781 38.23974609 C30.99775483 41.65309706 30.72927185 45.06676791 30.4609375 48.48046875 C30.28671674 50.66668727 30.11224671 52.85288595 29.9375 55.0390625 C29.85830322 56.05159088 29.77910645 57.06411926 29.69750977 58.10733032 C29.31902067 62.78517559 28.88030982 67.38324239 28 72 C24.08592163 73.17547401 20.16834707 74.33884223 16.25 75.5 C15.13882813 75.83386719 14.02765625 76.16773437 12.8828125 76.51171875 C11.81289062 76.82753906 10.74296875 77.14335938 9.640625 77.46875 C8.65610352 77.76201172 7.67158203 78.05527344 6.65722656 78.35742188 C4 79 4 79 0 79 C0 75.37 0 71.74 0 68 C6.41411514 64.99984937 12.03105315 63.09068405 19 61 C19.99 45.16 20.98 29.32 22 13 C7.15 13 -7.7 13 -23 13 C-23 12.67 -23 12.34 -23 12 C-15.41 12 -7.82 12 0 12 C0 8.04 0 4.08 0 0 Z " fill="#0A9DE4" transform="translate(60,20)"/>
<path d="M0 0 C2.97 0 5.94 0 9 0 C9 1.98 9 3.96 9 6 C9.680625 6.12375 10.36125 6.2475 11.0625 6.375 C14.4277412 7.09100877 17.70013425 8.02945125 21 9 C21 12.63 21 16.26 21 20 C13.71804356 18.13283168 6.92958891 15.91243592 0 13 C0 8.71 0 4.42 0 0 Z " fill="#E9ECED" transform="translate(40,68)"/>
<path d="M0 0 C7.59 0 15.18 0 23 0 C23 2.97 23 5.94 23 9 C15.41 9 7.82 9 0 9 C0 6.03 0 3.06 0 0 Z " fill="#EAECED" transform="translate(37,33)"/>
<path d="M0 0 C11.22 0 22.44 0 34 0 C34 3.63 34 7.26 34 11 C26.41 11 18.82 11 11 11 C11 12.65 11 14.3 11 16 C10.67 16 10.34 16 10 16 C10 14.02 10 12.04 10 10 C13.96 10 17.92 10 22 10 C22 7.03 22 4.06 22 1 C14.74 1 7.48 1 0 1 C0 0.67 0 0.34 0 0 Z " fill="#30A7E3" transform="translate(38,42)"/>
<path d="M0 0 C3.63 0 7.26 0 11 0 C10.67 3.63 10.34 7.26 10 11 C5.05 12.485 5.05 12.485 0 14 C0 9.38 0 4.76 0 0 Z " fill="#079CE5" transform="translate(60,63)"/>
<path d="M0 0 C3.63 0 7.26 0 11 0 C11 2.97 11 5.94 11 9 C14.63 9 18.26 9 22 9 C22 9.33 22 9.66 22 10 C14.74 10 7.48 10 0 10 C0 6.7 0 3.4 0 0 Z " fill="#DAE6EC" transform="translate(49,53)"/>
</svg>
