<?xml version="1.0" encoding="UTF-8"?>
<svg version="1.1" xmlns="http://www.w3.org/2000/svg" width="120" height="120">
<path d="M0 0 C6.09038349 4.39391678 11.3311986 10.18397485 16.62109375 15.48828125 C17.40646011 16.27269089 18.19182648 17.05710052 19.00099182 17.86528015 C20.64503717 19.50864976 22.28783953 21.15326375 23.92944336 22.79907227 C26.4511722 25.32620148 28.97825164 27.84789288 31.50585938 30.36914062 C33.10709195 31.97103324 34.70801471 33.57323563 36.30859375 35.17578125 C37.06579208 35.93095535 37.82299042 36.68612946 38.60313416 37.46418762 C39.29798416 38.16218979 39.99283417 38.86019196 40.70874023 39.5793457 C41.32192612 40.19332718 41.935112 40.80730865 42.56687927 41.43989563 C44.46401988 43.505135 44.97217105 44.85389804 45.5 47.625 C44.33246171 55.50588345 34.97812864 62.16953552 29.51171875 67.62109375 C28.72730911 68.40646011 27.94289948 69.19182648 27.13471985 70.00099182 C25.49135024 71.64503717 23.84673625 73.28783953 22.20092773 74.92944336 C19.67379852 77.4511722 17.15210712 79.97825164 14.63085938 82.50585938 C13.02896676 84.10709195 11.42676437 85.70801471 9.82421875 87.30859375 C9.06904465 88.06579208 8.31387054 88.82299042 7.53581238 89.60313416 C6.83781021 90.29798416 6.13980804 90.99283417 5.4206543 91.70874023 C4.80667282 92.32192612 4.19269135 92.935112 3.56010437 93.56687927 C1.494865 95.46401988 0.14610196 95.97217105 -2.625 96.5 C-10.50588345 95.33246171 -17.16953552 85.97812864 -22.62109375 80.51171875 C-23.40646011 79.72730911 -24.19182648 78.94289948 -25.00099182 78.13471985 C-26.64503717 76.49135024 -28.28783953 74.84673625 -29.92944336 73.20092773 C-32.4511722 70.67379852 -34.97825164 68.15210712 -37.50585938 65.63085938 C-39.10709195 64.02896676 -40.70801471 62.42676437 -42.30859375 60.82421875 C-43.06579208 60.06904465 -43.82299042 59.31387054 -44.60313416 58.53581238 C-45.29798416 57.83781021 -45.99283417 57.13980804 -46.70874023 56.4206543 C-47.32192612 55.80667282 -47.935112 55.19269135 -48.56687927 54.56010437 C-50.46401988 52.494865 -50.97217105 51.14610196 -51.5 48.375 C-50.15815026 39.31751427 -38.45313677 31.33839186 -32.0625 25 C-30.98609346 23.92862113 -29.90991986 22.85700818 -28.83398438 21.78515625 C-26.22533255 19.18740362 -23.61355529 16.59282038 -21 14 C-16.05545538 16.3623073 -12.36524116 19.6640162 -9 24 C-8.75 27.25 -8.75 27.25 -9 30 C-8.35611328 30.58523437 -7.71222656 31.17046875 -7.04882812 31.7734375 C-4.3344371 34.72330001 -4.48461738 36.41268746 -4.46875 40.375 C-4.46101563 42.22351562 -4.46101563 42.22351562 -4.453125 44.109375 C-4.46859375 45.39328125 -4.4840625 46.6771875 -4.5 48 C-4.48453125 49.28390625 -4.4690625 50.5678125 -4.453125 51.890625 C-4.45828125 53.12296875 -4.4634375 54.3553125 -4.46875 55.625 C-4.47326172 56.75164062 -4.47777344 57.87828125 -4.48242188 59.0390625 C-5.10827596 62.61942023 -6.33157994 63.64259071 -9 66 C-9.49631357 68.90697947 -9.43323149 70.30201593 -7.875 72.8125 C-5.12844028 74.55198782 -3.18153026 74.39769128 0 74 C2.08333333 73.08333333 2.08333333 73.08333333 3 71 C3.00082535 67.42243314 3.00082535 67.42243314 2 64 C1.01 63.34 0.02 62.68 -1 62 C-1.34057617 59.29443359 -1.34057617 59.29443359 -1.29296875 55.8984375 C-1.2784668 54.08085938 -1.2784668 54.08085938 -1.26367188 52.2265625 C-1.23853516 50.95554688 -1.21339844 49.68453125 -1.1875 48.375 C-1.16719727 46.456875 -1.16719727 46.456875 -1.14648438 44.5 C-1.11103196 41.33291718 -1.06161441 38.16666459 -1 35 C4.44190153 36.16612176 7.72866594 39.58330677 11 44 C11.3125 47.8125 11.3125 47.8125 11 51 C11.98048938 53.06402685 11.98048938 53.06402685 14 54 C17.14485925 54.39310741 19.13281671 54.47555213 21.9375 52.9375 C23.66665678 49.78433176 22.8590699 47.37491745 22 44 C19.20383857 41.70142029 19.20383857 41.70142029 16.1484375 42.1640625 C11.87920245 41.94159616 10.58057672 40.38383035 7.625 37.375 C6.75101563 36.51648437 5.87703125 35.65796875 4.9765625 34.7734375 C2.64191697 31.49755148 2.73842035 29.92369471 3 26 C1.5 23.5 1.5 23.5 -1 22 C-1.928125 22.06960937 -2.85625 22.13921875 -3.8125 22.2109375 C-8.19311124 21.92104411 -9.44186959 20.17095179 -12.375 17 C-13.24898437 16.071875 -14.12296875 15.14375 -15.0234375 14.1875 C-15.67570312 13.465625 -16.32796875 12.74375 -17 12 C-15.60609461 8.84280428 -13.96365028 6.7187347 -11.5 4.3125 C-10.58734375 3.40951172 -10.58734375 3.40951172 -9.65625 2.48828125 C-6.50509288 -0.34330097 -4.16959734 -0.61771812 0 0 Z " fill="#F4511D" transform="translate(63,12)"/>
</svg>
