<?xml version="1.0" encoding="UTF-8"?>
<svg version="1.1" xmlns="http://www.w3.org/2000/svg" width="120" height="120">
<path d="M0 0 C28.38 0 56.76 0 86 0 C85.35672159 11.57901142 84.63378925 23.09219637 83.58984375 34.6328125 C83.45649226 36.13163996 83.32340569 37.63049101 83.19056702 39.12936401 C82.84631466 43.00587265 82.49855422 46.88205813 82.14996338 50.75817871 C81.79244182 54.74093399 81.43837526 58.7239964 81.08398438 62.70703125 C80.39263027 70.47165209 79.69755548 78.23593355 79 86 C75.39667716 87.10693278 71.79218753 88.21002018 68.1875 89.3125 C66.68026367 89.7755957 66.68026367 89.7755957 65.14257812 90.24804688 C60.0996309 91.78849699 55.04901072 93.29889716 49.97509766 94.734375 C49.10809235 94.98026367 48.24108704 95.22615234 47.34780884 95.47949219 C39.26584166 97.27125947 30.29328401 93.24475868 22.625 91 C21.32957254 90.62709848 20.03400056 90.25469865 18.73828125 89.8828125 C9.30944549 87.15472274 9.30944549 87.15472274 7 86 C6.59765206 83.52276732 6.32825065 81.13428989 6.13037109 78.63793945 C6.02752052 77.48174858 6.02752052 77.48174858 5.92259216 76.30220032 C5.69704376 73.73993232 5.4851277 71.1767285 5.2734375 68.61328125 C5.12010713 66.83539939 4.96601391 65.05758316 4.81118774 63.27983093 C4.4878542 59.54517249 4.17069677 55.81006009 3.85839844 52.07446289 C3.45863976 47.29327608 3.04856042 42.51305223 2.63443565 37.7330904 C2.23973869 33.17262167 1.85009672 28.61172533 1.4609375 24.05078125 C1.38645763 23.18245478 1.31197777 22.3141283 1.23524094 21.41948891 C1.02434273 18.94956067 0.81701552 16.47935961 0.61083984 14.0090332 C0.54852676 13.28411682 0.48621368 12.55920044 0.42201233 11.81231689 C0.09471177 7.83895349 0 4.00239616 0 0 Z " fill="#E65101" transform="translate(17,12)"/>
<path d="M0 0 C11.22 0 22.44 0 34 0 C34 10.12269666 34 10.12269666 33.64868164 13.59155273 C33.53339867 14.76469276 33.53339867 14.76469276 33.41578674 15.96153259 C33.33142868 16.77731277 33.24707062 17.59309296 33.16015625 18.43359375 C33.07374374 19.31040298 32.98733124 20.18721222 32.89830017 21.09059143 C32.62384353 23.87332524 32.34383056 26.65545332 32.0625 29.4375 C31.69463509 33.08159116 31.33055276 36.72600939 30.97265625 40.37109375 C30.84160995 41.70386856 30.84160995 41.70386856 30.70791626 43.06356812 C30.06201067 49.84592565 29.62345058 56.62650658 29.33839417 63.43345642 C29.19928392 66.51623202 28.98214048 69.05357855 28 72 C25.85449219 72.9831543 25.85449219 72.9831543 23.046875 73.82421875 C22.03496094 74.13037109 21.02304688 74.43652344 19.98046875 74.75195312 C18.38138672 75.21504883 18.38138672 75.21504883 16.75 75.6875 C15.69941406 76.00783203 14.64882812 76.32816406 13.56640625 76.65820312 C8.74416703 78.09142885 5.0983617 79 0 79 C-0.33 75.37 -0.66 71.74 -1 68 C-2.28777344 67.57847656 -3.57554688 67.15695313 -4.90234375 66.72265625 C-6.58078108 66.1694283 -8.25916368 65.61603432 -9.9375 65.0625 C-10.78763672 64.78470703 -11.63777344 64.50691406 -12.51367188 64.22070312 C-13.32255859 63.95322266 -14.13144531 63.68574219 -14.96484375 63.41015625 C-15.7137085 63.16402588 -16.46257324 62.91789551 -17.23413086 62.66430664 C-19 62 -19 62 -20 61 C-20.07258946 58.81360547 -20.08373783 56.62499611 -20.0625 54.4375 C-20.05347656 53.23996094 -20.04445312 52.04242188 -20.03515625 50.80859375 C-20.02355469 49.88175781 -20.01195312 48.95492187 -20 48 C-17.03 48 -14.06 48 -11 48 C-10.979375 48.763125 -10.95875 49.52625 -10.9375 50.3125 C-10.20745841 53.31738417 -10.20745841 53.31738417 -6.9375 54.875 C-1.17820016 56.98004183 4.14063576 55.17187285 10 54 C10.33 50.37 10.66 46.74 11 43 C0.44 43 -10.12 43 -21 43 C-21.33 39.555625 -21.66 36.11125 -22 32.5625 C-22.10441406 31.49588135 -22.20882812 30.4292627 -22.31640625 29.33032227 C-22.39761719 28.45947998 -22.47882812 27.5886377 -22.5625 26.69140625 C-22.64628906 25.81685791 -22.73007812 24.94230957 -22.81640625 24.04125977 C-23.05829497 20.03433448 -23 16.01421977 -23 12 C-15.41 12 -7.82 12 0 12 C0 8.04 0 4.08 0 0 Z " fill="#FE7108" transform="translate(60,20)"/>
<path d="M0 0 C14.85 0 29.7 0 45 0 C45 2.97 45 5.94 45 9 C44 10 44 10 40.76538086 10.11352539 C39.33185874 10.11336631 37.89833088 10.10767407 36.46484375 10.09765625 C35.33496788 10.09553383 35.33496788 10.09553383 34.18226624 10.09336853 C31.7673044 10.08775376 29.35243399 10.07519883 26.9375 10.0625 C25.30403779 10.0574869 23.67057414 10.05292366 22.03710938 10.04882812 C18.02470415 10.03777954 14.01236759 10.02050506 10 10 C10 13.3 10 16.6 10 20 C20.89 20 31.78 20 43 20 C43 37.2 43 37.2 42.875 41.125 C42.85179687 42.36507812 42.82859375 43.60515625 42.8046875 44.8828125 C42 48 42 48 39.33203125 49.78125 C38.23246094 50.1834375 37.13289063 50.585625 36 51 C34.99582031 51.42023438 33.99164063 51.84046875 32.95703125 52.2734375 C24.88990335 55.09943758 19.8893183 55.19053314 12 52 C11.0409375 51.63519531 10.081875 51.27039063 9.09375 50.89453125 C6.71367025 49.96857326 4.35436534 48.98951587 2 48 C2 43.71 2 39.42 2 35 C4.97 35 7.94 35 11 35 C11.020625 35.763125 11.04125 36.52625 11.0625 37.3125 C11.79254159 40.31738417 11.79254159 40.31738417 15.0625 41.875 C20.82179984 43.98004183 26.14063576 42.17187285 32 41 C32.33 37.37 32.66 33.74 33 30 C22.44 30 11.88 30 1 30 C0 18 0 18 0 0 Z " fill="#EEE6E0" transform="translate(38,33)"/>
<path d="M0 0 C6.93 0 13.86 0 21 0 C21.04874014 4.33787239 21.04804554 8.66279804 21 13 C20.9995166 13.67305176 20.9990332 14.34610352 20.99853516 15.03955078 C20.98841929 17.0699504 20.9364225 19.09557073 20.875 21.125 C20.85179687 22.36507812 20.82859375 23.60515625 20.8046875 24.8828125 C20 28 20 28 17.33203125 29.78125 C16.23246094 30.1834375 15.13289063 30.585625 14 31 C12.99582031 31.42023438 11.99164063 31.84046875 10.95703125 32.2734375 C2.88990335 35.09943758 -2.1106817 35.19053314 -10 32 C-10.9590625 31.63519531 -11.918125 31.27039063 -12.90625 30.89453125 C-15.28632975 29.96857326 -17.64563466 28.98951587 -20 28 C-20 23.71 -20 19.42 -20 15 C-17.03 15 -14.06 15 -11 15 C-10.979375 15.763125 -10.95875 16.52625 -10.9375 17.3125 C-10.20745841 20.31738417 -10.20745841 20.31738417 -6.9375 21.875 C-1.17820016 23.98004183 4.14063576 22.17187285 10 21 C10.33 17.04 10.66 13.08 11 9 C7.37 9 3.74 9 0 9 C0 6.03 0 3.06 0 0 Z " fill="#FFFDFB" transform="translate(60,53)"/>
<path d="M0 0 C2.97 0 5.94 0 9 0 C9.07541016 1.16595703 9.07541016 1.16595703 9.15234375 2.35546875 C9.7385387 5.23116451 9.7385387 5.23116451 12.50390625 6.36328125 C14.01791016 6.83314453 14.01791016 6.83314453 15.5625 7.3125 C16.57441406 7.63863281 17.58632813 7.96476562 18.62890625 8.30078125 C19.41136719 8.53152344 20.19382812 8.76226562 21 9 C21 12.63 21 16.26 21 20 C13.71804356 18.13283168 6.92958891 15.91243592 0 13 C0 8.71 0 4.42 0 0 Z " fill="#EEEBE9" transform="translate(40,68)"/>
<path d="M0 0 C7.59 0 15.18 0 23 0 C23 2.97 23 5.94 23 9 C15.41 9 7.82 9 0 9 C0 6.03 0 3.06 0 0 Z " fill="#FFFCFA" transform="translate(60,33)"/>
<path d="M0 0 C3.63 0 7.26 0 11 0 C10.67 3.63 10.34 7.26 10 11 C5.05 12.485 5.05 12.485 0 14 C0 9.38 0 4.76 0 0 Z " fill="#FF6F04" transform="translate(60,63)"/>
<path d="M0 0 C3.96 0 7.92 0 12 0 C12 2.97 12 5.94 12 9 C8.37 9 4.74 9 1 9 C0.67 6.03 0.34 3.06 0 0 Z " fill="#E65100" transform="translate(48,43)"/>
</svg>
