<?xml version="1.0" encoding="UTF-8"?>
<svg version="1.1" xmlns="http://www.w3.org/2000/svg" width="120" height="120">
<path d="M0 0 C29.7 0 59.4 0 90 0 C90 29.7 90 59.4 90 90 C60.3 90 30.6 90 0 90 C0 60.3 0 30.6 0 0 Z " fill="#F5DD1D" transform="translate(15,15)"/>
<path d="M0 0 C2.18536546 1.79971273 3.12949135 3.1254772 4.125 5.75 C2.4375 7.375 2.4375 7.375 0.125 8.75 C-1.56449614 8.14351421 -3.23136866 7.47159424 -4.875 6.75 C-7.6086432 7.04519768 -7.6086432 7.04519768 -9.875 7.75 C-9.86233272 9.65394327 -9.86233272 9.65394327 -8.875 11.75 C-5.98586322 13.63618452 -5.98586322 13.63618452 -2.5 15.25 C5.01565517 18.91617325 5.01565517 18.91617325 7.125 22.75 C7.66522474 27.5348477 7.59325927 29.77746151 5.5 34.125 C1.76566118 38.25242712 -1.94795312 38.83168822 -7.3125 39.1875 C-11.61928641 39.09276527 -14.1609878 37.78550915 -17.5625 35.234375 C-19.12893919 33.46280687 -19.48078741 32.05614365 -19.875 29.75 C-18.555 28.76 -17.235 27.77 -15.875 26.75 C-13.38138429 27.95381448 -11.19356917 29.20428722 -8.875 30.75 C-6.29119823 31.00030977 -6.29119823 31.00030977 -3.875 30.75 C-2.57866379 29.68354885 -2.57866379 29.68354885 -2.8125 27.1875 C-2.833125 26.383125 -2.85375 25.57875 -2.875 24.75 C-3.69484375 24.38648437 -4.5146875 24.02296875 -5.359375 23.6484375 C-16.49935041 18.45155902 -16.49935041 18.45155902 -18.875 12.75 C-19.54454002 8.73275986 -19.06731067 7.10714838 -17.125 3.5 C-12.56008922 -2.0793354 -6.55587467 -2.85038029 0 0 Z " fill="#090802" transform="translate(87.875,56.25)"/>
<path d="M0 0 C2.64 0 5.28 0 8 0 C8.0743839 4.46570449 8.12871171 8.93107684 8.16479492 13.3972168 C8.17984353 14.91518438 8.20028738 16.43310876 8.22631836 17.95092773 C8.26287653 20.13796677 8.27976523 22.32442896 8.29296875 24.51171875 C8.3086792 25.82615967 8.32438965 27.14060059 8.34057617 28.49487305 C7.88144666 33.2201221 6.44211547 35.80510433 2.8125 38.8125 C-0.85211698 40.35978272 -4.11767128 40.70656863 -8 40 C-11.14344435 38.25364203 -13.46862726 36.53137274 -16 34 C-15.8125 32 -15.8125 32 -15 30 C-12 28 -12 28 -9 28 C-8.67 28.66 -8.34 29.32 -8 30 C-5.69 30.33 -3.38 30.66 -1 31 C-0.67 20.77 -0.34 10.54 0 0 Z " fill="#040401" transform="translate(55,55)"/>
</svg>
