<?xml version="1.0" encoding="UTF-8"?>
<svg version="1.1" xmlns="http://www.w3.org/2000/svg" width="120" height="120">
<path d="M0 0 C8.2068908 10.05344123 5.62540366 26.59758082 5 39 C4.41012042 44.27726416 3.02569943 49.09036088 1 54 C0.36384766 55.56621094 0.36384766 55.56621094 -0.28515625 57.1640625 C-6.58362994 71.02421351 -17.19818165 81.81620189 -30.1875 89.5 C-30.76975342 89.8508667 -31.35200684 90.2017334 -31.9519043 90.56323242 C-35.80216163 92.73513032 -38.60700177 93.56244587 -43 93 C-58.15568763 87.20584656 -72.03416443 73.54167368 -79 59 C-83.60742915 47.37572362 -85.20094222 37.08567735 -85.25 24.625 C-85.270625 23.32304688 -85.29125 22.02109375 -85.3125 20.6796875 C-85.34701942 12.22242914 -85.10700518 6.9654469 -79.80859375 0.203125 C-76.31718643 -2.53561454 -73.34382127 -3.35954878 -69.0625 -4.25 C-68.02706055 -4.48976563 -68.02706055 -4.48976563 -66.97070312 -4.734375 C-48.28229531 -8.98576635 -16.80721021 -11.56459418 0 0 Z " fill="#5C4137" transform="translate(100,17)"/>
<path d="M0 0 C8.2068908 10.05344123 5.62540366 26.59758082 5 39 C4.41012042 44.27726416 3.02569943 49.09036088 1 54 C0.36384766 55.56621094 0.36384766 55.56621094 -0.28515625 57.1640625 C-6.58362994 71.02421351 -17.19818165 81.81620189 -30.1875 89.5 C-30.76975342 89.8508667 -31.35200684 90.2017334 -31.9519043 90.56323242 C-35.80216163 92.73513032 -38.60700177 93.56244587 -43 93 C-58.15568763 87.20584656 -72.03416443 73.54167368 -79 59 C-83.60742915 47.37572362 -85.20094222 37.08567735 -85.25 24.625 C-85.270625 23.32304688 -85.29125 22.02109375 -85.3125 20.6796875 C-85.34701942 12.22242914 -85.10700518 6.9654469 -79.80859375 0.203125 C-76.31718643 -2.53561454 -73.34382127 -3.35954878 -69.0625 -4.25 C-68.02706055 -4.48976563 -68.02706055 -4.48976563 -66.97070312 -4.734375 C-48.28229531 -8.98576635 -16.80721021 -11.56459418 0 0 Z M-62.25 2.3125 C-62.96905518 2.43012695 -63.68811035 2.54775391 -64.42895508 2.66894531 C-68.4937186 3.43571532 -71.66588858 4.53592131 -75 7 C-77.34147155 10.51220732 -77.25715356 11.981781 -77.265625 16.13671875 C-77.26820312 17.35423828 -77.27078125 18.57175781 -77.2734375 19.82617188 C-77.26570313 21.10041016 -77.25796875 22.37464844 -77.25 23.6875 C-77.25773437 24.94240234 -77.26546875 26.19730469 -77.2734375 27.49023438 C-77.23680223 44.88283044 -71.19412459 59.4617558 -59.25 72.1875 C-53.74668314 77.44503766 -47.59011826 81.5895964 -40.5 84.375 C-30.0860256 83.25921703 -21.50049219 73.50936858 -15 66 C-5.389456 52.95566755 -2.80874632 39.77226899 -2.6875 23.9375 C-2.65849609 22.67099609 -2.62949219 21.40449219 -2.59960938 20.09960938 C-2.58704102 18.26946289 -2.58704102 18.26946289 -2.57421875 16.40234375 C-2.55963623 15.29366943 -2.54505371 14.18499512 -2.5300293 13.04272461 C-3.10903707 9.29406285 -4.34654225 7.66455381 -7 5 C-9.99557638 3.79478592 -9.99557638 3.79478592 -13.3125 3.25 C-14.40175781 3.02828125 -15.49101563 2.8065625 -16.61328125 2.578125 C-17.73089844 2.38734375 -18.84851563 2.1965625 -20 2 C-21.04929688 1.814375 -22.09859375 1.62875 -23.1796875 1.4375 C-35.99919328 -0.03058246 -49.52095478 0.2010661 -62.25 2.3125 Z " fill="#4DA74E" transform="translate(100,17)"/>
<path d="M0 0 C6.80941984 2.7327277 10.47124793 10.48462593 13.375 16.875 C16.90463465 25.19266079 17.58217636 34.67605335 14.4375 43.25 C12.44054656 47.68927059 9.5832448 51.1017354 6.484375 54.81640625 C4.18353061 58.20106945 4.07341281 60.96229571 4 65 C2.02 65 0.04 65 -2 65 C-2 63.88625 -2 62.7725 -2 61.625 C-2.48924549 57.42193646 -4.15281206 55.24835732 -6.875 52.0625 C-13.21475954 44.58658284 -14.61608715 38.02437283 -14.34375 28.265625 C-13.25352002 17.90844019 -7.66566535 7.08316799 0 0 Z " fill="#80C582" transform="translate(59,25)"/>
<path d="M0 0 C7.43541768 3.4284042 11.1864878 11.71772343 14.2734375 18.9921875 C17.41486737 27.67334316 17.13537914 37.25255645 13.3515625 45.6640625 C11.41318 49.01421491 8.95793075 51.85131058 6.484375 54.81640625 C4.18353061 58.20106945 4.07341281 60.96229571 4 65 C3.67 65 3.34 65 3 65 C2.93941406 64.24074219 2.87882812 63.48148438 2.81640625 62.69921875 C2.73261719 61.70535156 2.64882813 60.71148437 2.5625 59.6875 C2.44068359 58.20830078 2.44068359 58.20830078 2.31640625 56.69921875 C2.08187441 53.90624401 2.08187441 53.90624401 1 51 C0.88486168 49.32849013 0.82363216 47.6530037 0.79467773 45.9777832 C0.77473251 44.95695145 0.75478729 43.93611969 0.73423767 42.88435364 C0.71752518 41.78427475 0.70081268 40.68419586 0.68359375 39.55078125 C0.6524221 37.85915108 0.6524221 37.85915108 0.62062073 36.13334656 C0.55517153 32.5264604 0.49626156 28.91950071 0.4375 25.3125 C0.39431039 22.86913298 0.35069596 20.42577344 0.30664062 17.98242188 C0.19949484 11.98835926 0.09771971 5.99422329 0 0 Z " fill="#4DAC50" transform="translate(59,25)"/>
<path d="M0 0 C0.66 0 1.32 0 2 0 C3.32229189 2.64458379 3.09677194 4.67761301 3.0625 7.625 C3.05347656 8.62789062 3.04445313 9.63078125 3.03515625 10.6640625 C3.02355469 11.43492188 3.01195312 12.20578125 3 13 C1.68 13 0.36 13 -1 13 C-1.02708567 11.39592672 -1.04643483 9.7917215 -1.0625 8.1875 C-1.07410156 7.29417969 -1.08570313 6.40085937 -1.09765625 5.48046875 C-1 3 -1 3 0 0 Z " fill="#D8EBC4" transform="translate(59,77)"/>
<path d="M0 0 C0.66 0.33 1.32 0.66 2 1 C-0.31 3.31 -2.62 5.62 -5 8 C-5 5 -5 5 -2.5 2.3125 C-1.675 1.549375 -0.85 0.78625 0 0 Z " fill="#4F9547" transform="translate(23,15)"/>
</svg>
