<?xml version="1.0" encoding="UTF-8"?>
<svg version="1.1" xmlns="http://www.w3.org/2000/svg" width="120" height="120">
<path d="M0 0 C8.97393492 0.70846855 17.35997992 4.23094909 23.88671875 10.38671875 C26.92371419 14.14226395 28.87243408 18.29479189 30.96801758 22.62548828 C33.46794335 27.57038268 36.08662373 30.27388067 41.1171875 32.82421875 C43.38720589 34.24180285 44.02000366 35.55000915 45 38 C43.68 38.66 42.36 39.32 41 40 C42.98 42.31 44.96 44.62 47 47 C41.65632782 45.11399805 37.1854896 42.7782344 34 38 C35.65 37.01 37.3 36.02 39 35 C38.43152344 34.80148438 37.86304688 34.60296875 37.27734375 34.3984375 C29.98529255 31.20892596 27.64910928 26.34907016 24.60546875 19.375 C21.71808786 13.30517741 18.14682938 9.69860802 12 7 C8.6981361 5.87206401 5.37181091 4.89553127 2 4 C2.5053125 4.79921875 3.010625 5.5984375 3.53125 6.421875 C8.13481294 14.20408854 10.05187215 19.73350727 9 29 C10.32 27.68 11.64 26.36 13 25 C14.14981374 26.76825142 15.29471922 28.53969521 16.4375 30.3125 C17.07558594 31.29863281 17.71367188 32.28476562 18.37109375 33.30078125 C20 36 20 36 21 39 C22.32303717 39.3721042 23.65737935 39.70630173 25 40 C26.17063761 42.34127521 26.10158105 43.67801753 26.0625 46.28125 C26.05476563 47.12300781 26.04703125 47.96476562 26.0390625 48.83203125 C26.01302083 50.61067708 25.98697917 52.38932292 25.9609375 54.16796875 C25.95320313 55.00972656 25.94546875 55.85148437 25.9375 56.71875 C25.92589844 57.49154297 25.91429688 58.26433594 25.90234375 59.06054688 C25.87400007 61.08272358 25.87400007 61.08272358 27 63 C24.66705225 63.04241723 22.33297433 63.04092937 20 63 C19.505 62.505 19.505 62.505 19 62 C15.99538798 61.75454002 12.99175646 61.61594001 9.98046875 61.4765625 C6.61243381 60.93803005 5.1935545 60.62807722 3 58 C2.64768273 55.18146187 2.53022575 52.80332241 2.625 50 C2.62693359 48.91332031 2.62693359 48.91332031 2.62890625 47.8046875 C2.6915435 44.03253317 2.86492428 42.20261358 5 39 C8.2578125 38.48828125 8.2578125 38.48828125 12.125 38.3125 C13.40632813 38.24675781 14.68765625 38.18101563 16.0078125 38.11328125 C16.99523437 38.07589844 17.98265625 38.03851563 19 38 C17.02 36.35 15.04 34.7 13 33 C12.67 33.66 12.34 34.32 12 35 C10.125 34.6875 10.125 34.6875 8 34 C5.65740234 30.48610351 5.94841852 29.67880278 6.3125 25.625 C6.485595 18.84132457 4.06538848 14.56898513 0.53125 8.91015625 C-1.04858158 5.90767021 -1.42869216 4.32831833 -1 1 C-0.67 0.67 -0.34 0.34 0 0 Z M9 43 C8.87462259 45.14307896 8.82425636 47.29078886 8.8125 49.4375 C8.79832031 50.61183594 8.78414062 51.78617188 8.76953125 52.99609375 C8.68100744 56.11496902 8.68100744 56.11496902 11 58 C11.99 57.67 12.98 57.34 14 57 C13.67 56.34 13.34 55.68 13 55 C15.31 55.33 17.62 55.66 20 56 C20.02685938 53.85423363 20.04633088 51.70837355 20.0625 49.5625 C20.07410156 48.36753906 20.08570313 47.17257813 20.09765625 45.94140625 C20.33901792 43.11126659 20.33901792 43.11126659 19 42 C17.50261876 41.9020943 16.00057108 41.87025136 14.5 41.875 C13.6853125 41.87242188 12.870625 41.86984375 12.03125 41.8671875 C10.00469623 41.7754822 10.00469623 41.7754822 9 43 Z " fill="#007668" transform="translate(73,27)"/>
<path d="M0 0 C2.31 0 4.62 0 7 0 C9.31 4.62 11.62 9.24 14 14 C16.35337223 10.86217036 17.99684205 8.22270281 19.6875 4.75 C20.12449219 3.85796875 20.56148437 2.9659375 21.01171875 2.046875 C21.33785156 1.37140625 21.66398437 0.6959375 22 0 C24.64 0 27.28 0 30 0 C31.20029908 2.40059817 31.11459743 3.89360649 31.09765625 6.5703125 C31.09443359 7.46621094 31.09121094 8.36210938 31.08789062 9.28515625 C31.07532227 10.69087891 31.07532227 10.69087891 31.0625 12.125 C31.05798828 13.06988281 31.05347656 14.01476562 31.04882812 14.98828125 C31.03702357 17.32558387 31.02055759 19.66276061 31 22 C29.02 22 27.04 22 25 22 C24.67 18.04 24.34 14.08 24 10 C22.02 13.96 20.04 17.92 18 22 C12 22 12 22 10.390625 20.42578125 C10.01421875 19.72839844 9.6378125 19.03101562 9.25 18.3125 C8.86328125 17.62800781 8.4765625 16.94351563 8.078125 16.23828125 C6.94034733 13.87615587 5.97373609 11.43434023 5 9 C4.67 13.29 4.34 17.58 4 22 C2.35 22 0.7 22 -1 22 C-1.02887814 18.52085059 -1.04675687 15.04173169 -1.0625 11.5625 C-1.07087891 10.56927734 -1.07925781 9.57605469 -1.08789062 8.55273438 C-1.09111328 7.60849609 -1.09433594 6.66425781 -1.09765625 5.69140625 C-1.10289307 4.81685791 -1.10812988 3.94230957 -1.11352539 3.04125977 C-1 1 -1 1 0 0 Z " fill="#00776A" transform="translate(1,66)"/>
<path d="M0 0 C0.77279297 -0.00338379 1.54558594 -0.00676758 2.34179688 -0.01025391 C3.60443359 -0.01605469 3.60443359 -0.01605469 4.89257812 -0.02197266 C5.77300781 -0.01037109 6.6534375 0.00123047 7.56054688 0.01318359 C8.44097656 0.00158203 9.32140625 -0.01001953 10.22851562 -0.02197266 C11.07027344 -0.01810547 11.91203125 -0.01423828 12.77929688 -0.01025391 C13.93848633 -0.00517822 13.93848633 -0.00517822 15.12109375 0 C17.06054688 0.38818359 17.06054688 0.38818359 19.06054688 3.38818359 C19.27172852 5.44116211 19.27172852 5.44116211 19.22070312 7.76708984 C19.20974609 8.605625 19.19878906 9.44416016 19.1875 10.30810547 C19.16623047 11.18015625 19.14496094 12.05220703 19.12304688 12.95068359 C19.08866834 14.68106999 19.05851514 16.41154708 19.03320312 18.14208984 C19.01523682 18.90851807 18.99727051 19.67494629 18.97875977 20.46459961 C18.9328731 22.47351514 18.9328731 22.47351514 20.06054688 24.38818359 C17.72759912 24.43060083 15.39352121 24.42911297 13.06054688 24.38818359 C12.73054688 24.05818359 12.40054688 23.72818359 12.06054688 23.38818359 C9.05593485 23.14272361 6.05230333 23.0041236 3.04101562 22.86474609 C-0.32701931 22.32621364 -1.74589863 22.01626082 -3.93945312 19.38818359 C-4.29177039 16.56964546 -4.40922737 14.191506 -4.31445312 11.38818359 C-4.31316406 10.66373047 -4.311875 9.93927734 -4.31054688 9.19287109 C-4.17176275 0.83498273 -4.17176275 0.83498273 0 0 Z M2.06054688 4.38818359 C1.93516947 6.53126256 1.88480323 8.67897245 1.87304688 10.82568359 C1.85886719 12.00001953 1.8446875 13.17435547 1.83007812 14.38427734 C1.74155432 17.50315261 1.74155432 17.50315261 4.06054688 19.38818359 C5.05054687 19.05818359 6.04054688 18.72818359 7.06054688 18.38818359 C6.73054688 17.72818359 6.40054688 17.06818359 6.06054688 16.38818359 C8.37054688 16.71818359 10.68054688 17.04818359 13.06054688 17.38818359 C13.08740626 15.24241723 13.10687775 13.09655714 13.12304688 10.95068359 C13.13464844 9.75572266 13.14625 8.56076172 13.15820312 7.32958984 C13.39956479 4.49945018 13.39956479 4.49945018 12.06054688 3.38818359 C10.56316563 3.2902779 9.06111795 3.25843495 7.56054688 3.26318359 C6.74585937 3.26060547 5.93117188 3.25802734 5.09179688 3.25537109 C3.0652431 3.16366579 3.0652431 3.16366579 2.06054688 4.38818359 Z " fill="#F47E16" transform="translate(79.939453125,65.61181640625)"/>
<path d="M0 0 C1.98 0 3.96 0 6 0 C6.33 3.63 6.66 7.26 7 11 C9.64 11.33 12.28 11.66 15 12 C15 8.04 15 4.08 15 0 C16.65 0 18.3 0 20 0 C20 5.94 20 11.88 20 18 C15.62703266 20.18648367 12.4791784 20.23362071 7.75 20.125 C7.00492188 20.11597656 6.25984375 20.10695313 5.4921875 20.09765625 C3.66131941 20.07418358 1.83061762 20.03831525 0 20 C0 19.01 0 18.02 0 17 C3.96 16.67 7.92 16.34 12 16 C10.576875 15.896875 9.15375 15.79375 7.6875 15.6875 C5.05879721 15.49701429 3.43824787 15.28447669 1.21875 13.84375 C-0.56297864 11.14831437 -0.29044813 9.00389213 -0.1875 5.8125 C-0.16042969 4.72582031 -0.13335937 3.63914062 -0.10546875 2.51953125 C-0.07066406 1.68808594 -0.03585938 0.85664062 0 0 Z " fill="#00786A" transform="translate(33,73)"/>
<path d="M0 0 C0.74362793 0.01047363 1.48725586 0.02094727 2.25341797 0.03173828 C3.46191406 0.04140625 3.46191406 0.04140625 4.69482422 0.05126953 C5.95746094 0.07640625 5.95746094 0.07640625 7.24560547 0.10205078 C8.51984375 0.11558594 8.51984375 0.11558594 9.81982422 0.12939453 C11.9202043 0.15299431 14.02043991 0.18886595 16.12060547 0.22705078 C16.12060547 1.21705078 16.12060547 2.20705078 16.12060547 3.22705078 C11.50060547 3.22705078 6.88060547 3.22705078 2.12060547 3.22705078 C2.12060547 5.20705078 2.12060547 7.18705078 2.12060547 9.22705078 C2.87986328 9.20384766 3.63912109 9.18064453 4.42138672 9.15673828 C5.41525391 9.13869141 6.40912109 9.12064453 7.43310547 9.10205078 C8.41923828 9.07884766 9.40537109 9.05564453 10.42138672 9.03173828 C13.12060547 9.22705078 13.12060547 9.22705078 16.12060547 11.22705078 C16.73711032 16.77559447 16.73711032 16.77559447 16.12060547 19.22705078 C13.61698701 22.11235785 12.07885341 22.23019476 8.22998047 22.52001953 C6.77656538 22.50020023 5.3232938 22.46459923 3.87060547 22.41455078 C3.12552734 22.40101562 2.38044922 22.38748047 1.61279297 22.37353516 C-0.21824869 22.33832282 -2.04891622 22.28451929 -3.87939453 22.22705078 C-3.87939453 21.23705078 -3.87939453 20.24705078 -3.87939453 19.22705078 C2.55560547 18.73205078 2.55560547 18.73205078 9.12060547 18.22705078 C9.45060547 16.57705078 9.78060547 14.92705078 10.12060547 13.22705078 C8.90373047 13.26830078 7.68685547 13.30955078 6.43310547 13.35205078 C2.89877928 13.35831732 0.30799808 12.86904091 -2.87939453 11.22705078 C-4.77428406 9.33216126 -4.05958565 6.65565933 -4.10986328 4.13720703 C-3.77839309 1.3899371 -2.75533568 0.33287376 0 0 Z " fill="#F57D16" transform="translate(58.87939453125,65.77294921875)"/>
<path d="M0 0 C1.98 0 3.96 0 6 0 C6 5.94 6 11.88 6 18 C12.93 18.495 12.93 18.495 20 19 C20 19.99 20 20.98 20 22 C17.22858283 22.08089542 14.45952181 22.14044062 11.6875 22.1875 C10.90181641 22.21263672 10.11613281 22.23777344 9.30664062 22.26367188 C8.54931641 22.27333984 7.79199219 22.28300781 7.01171875 22.29296875 C6.31522217 22.3086792 5.61872559 22.32438965 4.90112305 22.34057617 C2.35092588 21.88372179 1.50522235 21.08968465 0 19 C-0.34057617 16.9152832 -0.34057617 16.9152832 -0.29296875 14.55078125 C-0.28330078 13.70322266 -0.27363281 12.85566406 -0.26367188 11.98242188 C-0.23853516 11.10134766 -0.21339844 10.22027344 -0.1875 9.3125 C-0.17396484 8.41982422 -0.16042969 7.52714844 -0.14648438 6.60742188 C-0.11114079 4.40433834 -0.06180493 2.20247418 0 0 Z " fill="#F57D16" transform="translate(100,66)"/>
<path d="M0 0 C0.99 0 1.98 0 3 0 C3 1.32 3 2.64 3 4 C2.34 4 1.68 4 1 4 C0.67 2.68 0.34 1.36 0 0 Z " fill="#006D60" transform="translate(81,35)"/>
</svg>
