<?xml version="1.0" encoding="UTF-8"?>
<svg version="1.1" xmlns="http://www.w3.org/2000/svg" width="120" height="120">
<path d="M0 0 C5 1 5 1 8 3 C8.41614928 5.82464914 8.6360877 8.42247467 8.71484375 11.26171875 C8.75116661 12.4977459 8.75116661 12.4977459 8.78822327 13.75874329 C8.82975161 15.5062059 8.86191602 17.25391206 8.88549805 19.00170898 C8.93704711 21.66410925 9.06850991 24.31519409 9.20117188 26.97460938 C9.5394787 39.31558086 9.5394787 39.31558086 5.43798828 43.80322266 C1.39635433 46.29910671 -1.87145959 48.2140046 -6.70996094 47.72753906 C-11.47380542 46.21407887 -15.6700237 43.45191429 -20 41 C-20 35.39 -20 29.78 -20 24 C-17.958125 22.824375 -15.91625 21.64875 -13.8125 20.4375 C-12.86274292 19.87567017 -12.86274292 19.87567017 -11.89379883 19.30249023 C-9.13347012 17.76676882 -7.3765466 16.97006533 -4.19921875 17.22265625 C-2 18 -2 18 0 19 C0 12.73 0 6.46 0 0 Z M-6 26 C-10.4527128 28.31592288 -10.4527128 28.31592288 -12.75 32.5 C-11.63821132 36.20596227 -9.26721429 37.16219196 -6 39 C-4.02 38.01 -2.04 37.02 0 36 C0 33.69 0 31.38 0 29 C-1.98 28.01 -3.96 27.02 -6 26 Z " fill="#36474F" transform="translate(82,30)"/>
<path d="M0 0 C0.97582031 0.54785156 1.95164062 1.09570312 2.95703125 1.66015625 C3.69308594 2.08167969 4.42914063 2.50320312 5.1875 2.9375 C6.61251731 14.66750357 6.61251731 14.66750357 5.1875 19.9375 C1.76410738 23.72496771 -1.88941918 25.65582202 -6.8125 26.9375 C-11.97857522 26.55531586 -16.36322416 25.07489149 -20.75 22.33984375 C-24.15414388 18.3747898 -24.22778256 14.29710193 -24.15454102 9.21142578 C-23.75940115 5.07535699 -23.19251942 3.34211236 -20.27734375 0.23828125 C-12.19922676 -4.69667746 -8.0917589 -4.58208034 0 0 Z " fill="#4AAD4E" transform="translate(52.8125,51.0625)"/>
<path d="M0 0 C3.69875804 1.56049792 6.99683874 3.31717594 10 6 C10.90678634 9.06109087 10.55560245 10.77750577 10 14 C7.69 15.32 5.38 16.64 3 18 C2 17 2 17 1.9375 13.9375 C1.958125 12.968125 1.97875 11.99875 2 11 C-2.35469623 9.0728037 -2.35469623 9.0728037 -6.875 10.0625 C-9.19003852 11.80374913 -9.19003852 11.80374913 -9.5390625 14.3515625 C-9.23366596 17.31243757 -9.23366596 17.31243757 -6.15625 19.23828125 C-4.94832713 19.94843371 -3.72889501 20.63929036 -2.5 21.3125 C-1.87996094 21.67150391 -1.25992188 22.03050781 -0.62109375 22.40039062 C0.90977955 23.28358676 2.45373708 24.14403303 4 25 C2.02325405 27.2695972 0.47493779 28.80284095 -2.32421875 29.96484375 C-6.08330707 30.01423323 -8.67300328 28.4196727 -11.8125 26.5625 C-13.854375 25.386875 -15.89625 24.21125 -18 23 C-18 17.39 -18 11.78 -18 6 C-15.958125 4.824375 -13.91625 3.64875 -11.8125 2.4375 C-11.17932861 2.06294678 -10.54615723 1.68839355 -9.89379883 1.30249023 C-6.14578936 -0.78273185 -4.047817 -1.47193345 0 0 Z " fill="#36464F" transform="translate(110,48)"/>
<path d="M0 0 C0 6.93 0 13.86 0 21 C-5 20 -5 20 -8 18 C-8.30078125 15.28515625 -8.30078125 15.28515625 -8.3125 12.0625 C-8.43732481 8.86904265 -8.43732481 8.86904265 -9 6 C-11.57275252 3.37883497 -11.57275252 3.37883497 -15 3 C-17.66337712 3.90459865 -17.66337712 3.90459865 -20 5 C-19.91298828 6.35544922 -19.91298828 6.35544922 -19.82421875 7.73828125 C-19.77910156 8.91777344 -19.73398437 10.09726563 -19.6875 11.3125 C-19.60048828 13.07013672 -19.60048828 13.07013672 -19.51171875 14.86328125 C-20 18 -20 18 -22.33203125 19.91796875 C-25 21 -25 21 -28 21 C-29.50789532 6.61506533 -29.50789532 6.61506533 -28 0 C-18.90460781 -10.88884981 -10.23387283 -5.79508461 0 0 Z " fill="#36464E" transform="translate(28,54)"/>
<path d="M0 0 C4.8274799 1.41292095 8.7162359 3.42974154 13 6 C13 10.95 13 15.9 13 21 C10.58174072 18.58174072 9.19259947 16.88687454 7.51953125 14.0234375 C7.07802734 13.270625 6.63652344 12.5178125 6.18164062 11.7421875 C5.72982422 10.96101563 5.27800781 10.17984375 4.8125 9.375 C4.34908203 8.58609375 3.88566406 7.7971875 3.40820312 6.984375 C0 1.14174107 0 1.14174107 0 0 Z " fill="#2E7E32" transform="translate(45,48)"/>
<path d="M0 0 C2.13812549 2.01594689 3.74707633 3.98895817 5.26171875 6.50390625 C5.65810547 7.16197266 6.05449219 7.82003906 6.46289062 8.49804688 C6.86701172 9.17931641 7.27113281 9.86058594 7.6875 10.5625 C8.10322266 11.24763672 8.51894531 11.93277344 8.94726562 12.63867188 C12 17.7466133 12 17.7466133 12 20 C3.375 17.53571429 3.375 17.53571429 0 14 C-0.5227042 9.29566217 -0.3402984 4.71376308 0 0 Z " fill="#2E7F32" transform="translate(30,57)"/>
<path d="M0 0 C0.33 0 0.66 0 1 0 C1 4.95 1 9.9 1 15 C-2.99435028 11.00564972 -2.99435028 11.00564972 -4 8 C-3.3203125 5.859375 -3.3203125 5.859375 -2.125 3.75 C-1.73570313 3.04359375 -1.34640625 2.3371875 -0.9453125 1.609375 C-0.63335937 1.07828125 -0.32140625 0.5471875 0 0 Z " fill="#378D3B" transform="translate(57,54)"/>
<path d="M0 0 C1.2065625 0.0309375 1.2065625 0.0309375 2.4375 0.0625 C2.4375 1.7125 2.4375 3.3625 2.4375 5.0625 C0.7875 5.0625 -0.8625 5.0625 -2.5625 5.0625 C-3.125 3.125 -3.125 3.125 -3.5625 1.0625 C-2.5625 0.0625 -2.5625 0.0625 0 0 Z " fill="#348D37" transform="translate(106.5625,59.9375)"/>
<path d="M0 0 C3 3 3 3 4 6 C2.5625 9.1875 2.5625 9.1875 1 12 C0.67 12 0.34 12 0 12 C0 8.04 0 4.08 0 0 Z " fill="#388E3C" transform="translate(30,57)"/>
</svg>
