<?xml version="1.0" encoding="UTF-8"?>
<svg version="1.1" xmlns="http://www.w3.org/2000/svg" width="120" height="120">
<path d="M0 0 C2.39706123 -0.10854617 4.78915838 -0.18753157 7.1875 -0.25 C7.86103516 -0.28351562 8.53457031 -0.31703125 9.22851562 -0.3515625 C12.70025373 -0.41930373 14.81949501 -0.10413749 17.84375 1.640625 C23.63700149 7.97961758 24.64941436 17.84725808 24.3203125 26.140625 C23.6285587 32.31579311 22.4663056 37.24758599 18.4375 42.0625 C14.07629497 45.52909887 10.43352076 45.12976448 5.0546875 45.09765625 C4.1696756 45.0962413 3.2846637 45.09482635 2.37283325 45.09336853 C-0.45981191 45.0877614 -3.29237864 45.07520771 -6.125 45.0625 C-8.04296761 45.05748592 -9.96093646 45.05292285 -11.87890625 45.04882812 C-16.58596782 45.03778966 -21.2929706 45.02052025 -26 45 C-26 46.65 -26 48.3 -26 50 C-18.74 50 -11.48 50 -4 50 C-3.8453125 53.8053125 -3.8453125 53.8053125 -3.6875 57.6875 C-3.64197998 58.47729248 -3.59645996 59.26708496 -3.54956055 60.08081055 C-3.47021692 64.12938299 -3.69913096 65.61124825 -6.2734375 68.9375 C-13.43752366 74.35675142 -23.3933511 73.64879332 -32 73 C-36.3341685 72.14518711 -39.26309434 70.73690566 -42.4375 67.5625 C-45.9121963 61.86399807 -45.21915624 55.60989976 -45.25 49.125 C-45.270625 48.04863281 -45.29125 46.97226563 -45.3125 45.86328125 C-45.34053589 40.17900506 -45.3202114 35.85943561 -42 31 C-38.0694201 27.43791196 -34.6349839 26.88267478 -29.44921875 26.82421875 C-28.35802734 26.80037109 -27.26683594 26.77652344 -26.14257812 26.75195312 C-23.85109708 26.70920645 -21.55937376 26.67783587 -19.26757812 26.65820312 C-10.89975444 26.47279303 -10.89975444 26.47279303 -4 22 C-0.45879391 17.74904258 -0.46808855 13.49084695 -0.3125 8.1875 C-0.27833984 7.39923828 -0.24417969 6.61097656 -0.20898438 5.79882812 C-0.12700125 3.86636881 -0.06181155 1.93320965 0 0 Z M-15 56 C-15.33 57.32 -15.66 58.64 -16 60 C-14.11683841 61.10836423 -14.11683841 61.10836423 -12 62 C-11.34 61.67 -10.68 61.34 -10 61 C-10.33 59.35 -10.66 57.7 -11 56 C-12.32 56 -13.64 56 -15 56 Z " fill="#FFC106" transform="translate(83,35)"/>
<path d="M0 0 C3.88755867 3.96673872 4.51126156 6.59692983 4.53125 12.09375 C4.53699036 13.09746643 4.53699036 13.09746643 4.54284668 14.12145996 C4.54555723 15.53004469 4.53825592 16.93868048 4.52148438 18.34716797 C4.50005675 20.49431339 4.52130912 22.63811397 4.546875 24.78515625 C4.54423156 26.1588615 4.53910625 27.53256467 4.53125 28.90625 C4.52673828 30.14697266 4.52222656 31.38769531 4.51757812 32.66601562 C3.90094665 36.63805309 2.88671862 38.23696256 0 41 C-3.61277235 42.95745636 -6.67501956 43.24874612 -10.74609375 43.2734375 C-12.37321289 43.304375 -12.37321289 43.304375 -14.03320312 43.3359375 C-16.29875232 43.36193347 -18.56440382 43.38019012 -20.83007812 43.390625 C-28.63955525 43.55747436 -32.09144311 44.37123135 -37.80078125 49.671875 C-39.69758561 53.35427044 -39.83955344 57.16402206 -40.1875 61.25 C-40.26935547 62.09046875 -40.35121094 62.9309375 -40.43554688 63.796875 C-40.63516482 65.86350783 -40.81912511 67.93164248 -41 70 C-43.22808159 70.10853983 -45.45769932 70.18583307 -47.6875 70.25 C-48.92886719 70.29640625 -50.17023437 70.3428125 -51.44921875 70.390625 C-55.60161571 69.93381565 -57.10984543 68.95309804 -60 66 C-64.94062053 56.29520967 -65.57794746 44.88994994 -62.8125 34.375 C-61.13489916 29.50995756 -58.56593784 27.28296892 -54 25 C-51.01029711 24.91294854 -48.04415045 24.88449855 -45.0546875 24.90234375 C-44.1696756 24.9037587 -43.2846637 24.90517365 -42.37283325 24.90663147 C-39.54018809 24.9122386 -36.70762136 24.92479229 -33.875 24.9375 C-31.95703239 24.94251408 -30.03906354 24.94707715 -28.12109375 24.95117188 C-23.41403218 24.96221034 -18.7070294 24.97947975 -14 25 C-14 23.35 -14 21.7 -14 20 C-21.59 20 -29.18 20 -37 20 C-37.45784418 6.41728922 -37.45784418 6.41728922 -34 1 C-25.28203008 -4.81197995 -9.12455348 -5.48972109 0 0 Z M-29 8 C-29.66 9.32 -30.32 10.64 -31 12 C-30.34 12.66 -29.68 13.32 -29 14 C-27.68 14 -26.36 14 -25 14 C-24.3185177 12.10820797 -24.3185177 12.10820797 -24 10 C-24.66 9.34 -25.32 8.68 -26 8 C-26.99 8 -27.98 8 -29 8 Z " fill="#0176BC" transform="translate(75,15)"/>
</svg>
