<?xml version="1.0" encoding="UTF-8"?>
<svg version="1.1" xmlns="http://www.w3.org/2000/svg" width="120" height="120">
<path d="M0 0 C3.86217956 1.98214503 7.19270973 4.50777003 10.51171875 7.2890625 C13.1699605 6.03778602 15.40103162 4.67308859 17.69921875 2.8515625 C23.73336324 -1.48427267 30.01004127 -3.54556045 37.43359375 -2.3515625 C41.66692571 -1.04655039 44.48869286 1.44831184 46.66015625 5.35546875 C47.88546177 9.57659007 47.76179703 13.60596348 47.69921875 17.9765625 C47.69825195 19.2769043 47.69825195 19.2769043 47.69726562 20.60351562 C47.65241158 27.00767684 47.65241158 27.00767684 46.51171875 29.2890625 C47.29546875 29.3303125 48.07921875 29.3715625 48.88671875 29.4140625 C57.13012908 31.4038512 63.69051941 36.38638595 68.51171875 43.2890625 C70.12182933 46.50928366 69.96951624 49.79672165 69.51171875 53.2890625 C64.89693321 62.51863357 56.6860494 66.53969771 47.51171875 70.2890625 C47.67671875 71.2584375 47.84171875 72.2278125 48.01171875 73.2265625 C49.0790795 81.02771386 49.04756734 88.07760846 45.51171875 95.2890625 C42.87837995 98.44906906 41.40534194 99.9911881 37.51171875 101.2890625 C27.26381676 102.17250233 20.24660464 97.61185751 12.51171875 91.2890625 C9.50107274 92.70583709 6.85801334 94.37938209 4.13671875 96.2890625 C-2.09088324 100.45434279 -7.04721088 101.87962364 -14.48828125 101.2890625 C-18.62621669 99.50222674 -21.05642994 97.06262488 -23.48828125 93.2890625 C-26.39086919 85.6472208 -25.68252534 78.2475051 -24.48828125 70.2890625 C-25.41769531 69.8765625 -26.34710937 69.4640625 -27.3046875 69.0390625 C-35.40902624 65.30373392 -42.31666234 61.63230032 -46.48828125 53.2890625 C-46.86770408 48.73598857 -46.97931769 46.27113537 -44.92578125 42.1640625 C-39.04878732 35.23222351 -32.89003298 31.72268979 -24.48828125 28.2890625 C-24.58367188 27.2990625 -24.6790625 26.3090625 -24.77734375 25.2890625 C-26.26273119 8.41335136 -26.26273119 8.41335136 -20.55078125 1.3515625 C-14.77813978 -5.12974084 -7.15686376 -3.04687309 0 0 Z M-17.48828125 7.2890625 C-19.47480991 12.00193048 -19.59094744 15.60080088 -19.11328125 20.6640625 C-19.00242187 21.90929687 -18.8915625 23.15453125 -18.77734375 24.4375 C-18.68195312 25.37851562 -18.5865625 26.31953125 -18.48828125 27.2890625 C-16.25651948 27.08672415 -14.02776632 26.85103976 -11.80078125 26.6015625 C-10.55941406 26.47394531 -9.31804688 26.34632812 -8.0390625 26.21484375 C-3.79354921 25.10792774 -2.29214998 23.59918531 0.51171875 20.2890625 C1.10597656 19.62261719 1.70023438 18.95617187 2.3125 18.26953125 C2.81136719 17.67785156 3.31023438 17.08617187 3.82421875 16.4765625 C4.59185547 15.56970703 4.59185547 15.56970703 5.375 14.64453125 C5.75011719 14.19722656 6.12523438 13.74992187 6.51171875 13.2890625 C3.1049802 7.86925117 -1.67696111 5.53267344 -7.48828125 3.2890625 C-12.44527131 2.46289749 -14.50139481 3.23543091 -17.48828125 7.2890625 Z M25.44921875 5.4765625 C24.61261719 5.88261719 23.77601562 6.28867187 22.9140625 6.70703125 C20.13297827 8.53847696 18.46109392 10.61035989 16.51171875 13.2890625 C21.87163782 21.49618448 21.87163782 21.49618448 30.13671875 25.9140625 C31.59122762 26.07766279 33.05050024 26.20420044 34.51171875 26.2890625 C35.86718541 26.48876293 37.22153214 26.69632623 38.57421875 26.9140625 C39.54359375 27.0378125 40.51296875 27.1615625 41.51171875 27.2890625 C42.98454674 15.89911802 42.98454674 15.89911802 39.51171875 5.2890625 C35.09116657 1.75262076 30.14184589 3.11936958 25.44921875 5.4765625 Z M10.51171875 17.2890625 C9.15459709 18.84762231 9.15459709 18.84762231 7.88671875 20.7890625 C7.10296875 21.9440625 6.31921875 23.0990625 5.51171875 24.2890625 C9.47171875 24.2890625 13.43171875 24.2890625 17.51171875 24.2890625 C16.33609375 22.5565625 16.33609375 22.5565625 15.13671875 20.7890625 C14.69585937 20.139375 14.255 19.4896875 13.80078125 18.8203125 C13.37539063 18.315 12.95 17.8096875 12.51171875 17.2890625 C11.85171875 17.2890625 11.19171875 17.2890625 10.51171875 17.2890625 Z M7.76953125 29.11328125 C4.94263443 29.03165353 3.11962791 29.17719828 0.51171875 30.2890625 C-2.4803723 33.63147515 -4.43256496 37.32407936 -6.48828125 41.2890625 C-7.33930519 42.56200253 -8.19288489 43.83324397 -9.05078125 45.1015625 C-10.81958933 48.15164988 -10.81958933 48.15164988 -9.8203125 51.03125 C-7.30612391 57.18032121 -4.3307314 63.60991826 0.51171875 68.2890625 C4.6679358 69.95154932 8.11343218 69.71970414 12.51171875 69.2890625 C13.41664062 69.34707031 14.3215625 69.40507813 15.25390625 69.46484375 C18.08080307 69.54647147 19.90380959 69.40092672 22.51171875 68.2890625 C25.5038098 64.94664985 27.45600246 61.25404564 29.51171875 57.2890625 C30.36274269 56.01612247 31.21632239 54.74488103 32.07421875 53.4765625 C33.84302683 50.42647512 33.84302683 50.42647512 32.84375 47.546875 C30.32956141 41.39780379 27.3541689 34.96820674 22.51171875 30.2890625 C17.48574755 28.27867402 13.00159076 29.44866968 7.76953125 29.11328125 Z M30.51171875 31.2890625 C32.16171875 34.2590625 33.81171875 37.2290625 35.51171875 40.2890625 C36.17171875 40.2890625 36.83171875 40.2890625 37.51171875 40.2890625 C38.17171875 37.9790625 38.83171875 35.6690625 39.51171875 33.2890625 C35.11918102 31.72634061 35.11918102 31.72634061 30.51171875 31.2890625 Z M-16.48828125 33.2890625 C-15.82828125 35.5990625 -15.16828125 37.9090625 -14.48828125 40.2890625 C-13.82828125 40.2890625 -13.16828125 40.2890625 -12.48828125 40.2890625 C-10.83828125 37.3190625 -9.18828125 34.3490625 -7.48828125 31.2890625 C-10.86851642 31.2890625 -13.32297062 32.16361872 -16.48828125 33.2890625 Z M-37.48828125 42.7265625 C-39.84929438 45.75161057 -40.48828125 47.4572617 -40.48828125 51.2890625 C-38.53772471 55.34316041 -36.48288358 57.30433775 -32.61328125 59.5390625 C-31.77023438 60.03921875 -30.9271875 60.539375 -30.05859375 61.0546875 C-27.50405564 62.28148696 -25.27952593 62.86887513 -22.48828125 63.2890625 C-17.82287992 54.14254637 -17.82287992 54.14254637 -18.48828125 44.2890625 C-19.7197242 41.23508399 -21.04534479 38.24876008 -22.48828125 35.2890625 C-28.24333324 35.2890625 -33.14678884 39.19909992 -37.48828125 42.7265625 Z M45.51171875 35.2890625 C44.63892013 37.15546231 43.78920848 39.03266861 42.94921875 40.9140625 C42.47355469 41.95820312 41.99789062 43.00234375 41.5078125 44.078125 C39.83221391 49.47946633 41.45433231 53.60368841 43.57421875 58.6640625 C43.93644531 59.53804687 44.29867187 60.41203125 44.671875 61.3125 C44.94902344 61.96476562 45.22617188 62.61703125 45.51171875 63.2890625 C49.4091733 62.70234891 52.25240402 61.54688225 55.63671875 59.5390625 C56.48492187 59.04921875 57.333125 58.559375 58.20703125 58.0546875 C60.8331769 56.04279287 62.08308709 54.25837537 63.51171875 51.2890625 C63.51171875 47.4572617 62.87273188 45.75161057 60.51171875 42.7265625 C56.17022634 39.19909992 51.26677074 35.2890625 45.51171875 35.2890625 Z M-13.48828125 57.2890625 C-15.11335321 60.1221787 -15.11335321 60.1221787 -16.48828125 63.2890625 C-16.15828125 64.2790625 -15.82828125 65.2690625 -15.48828125 66.2890625 C-12.84828125 66.6190625 -10.20828125 66.9490625 -7.48828125 67.2890625 C-9.13828125 63.9890625 -10.78828125 60.6890625 -12.48828125 57.2890625 C-12.81828125 57.2890625 -13.14828125 57.2890625 -13.48828125 57.2890625 Z M35.51171875 58.2890625 C33.03671875 62.7440625 33.03671875 62.7440625 30.51171875 67.2890625 C33.15171875 66.9590625 35.79171875 66.6290625 38.51171875 66.2890625 C39.71947455 62.66579511 39.05483003 61.64759881 37.51171875 58.2890625 C36.85171875 58.2890625 36.19171875 58.2890625 35.51171875 58.2890625 Z M-18.48828125 71.2890625 C-19.91672366 82.66330084 -19.91672366 82.66330084 -16.48828125 93.2890625 C-12.7891218 95.7551688 -11.22970055 95.53954758 -6.9765625 94.96875 C-1.3863051 93.44174091 3.32091085 90.07527435 6.51171875 85.2890625 C1.15179968 77.08194052 1.15179968 77.08194052 -7.11328125 72.6640625 C-8.56779012 72.50046221 -10.02706274 72.37392456 -11.48828125 72.2890625 C-12.84374791 72.08936207 -14.19809464 71.88179877 -15.55078125 71.6640625 C-16.52015625 71.5403125 -17.48953125 71.4165625 -18.48828125 71.2890625 Z M24.63671875 75.4765625 C23.58484375 76.86875 23.58484375 76.86875 22.51171875 78.2890625 C21.41327484 79.56484554 20.30890516 80.83554613 19.19921875 82.1015625 C18.30131345 83.16231209 17.40473531 84.22419395 16.51171875 85.2890625 C19.9184573 90.70887383 24.70039861 93.04545156 30.51171875 95.2890625 C33.77046225 96.0446057 33.77046225 96.0446057 36.51171875 95.2890625 C40.27742871 92.56938308 41.35719424 89.69913812 42.51171875 85.2890625 C42.54138669 81.62218381 42.54138669 81.62218381 42.13671875 77.9140625 C42.02585937 76.66882813 41.915 75.42359375 41.80078125 74.140625 C41.70539063 73.19960937 41.61 72.25859375 41.51171875 71.2890625 C35.60528962 71.2890625 29.38533323 71.86348626 24.63671875 75.4765625 Z M5.51171875 74.2890625 C7.98671875 77.7540625 7.98671875 77.7540625 10.51171875 81.2890625 C14.51168161 79.95574155 15.34954212 77.7932798 17.51171875 74.2890625 C13.55171875 74.2890625 9.59171875 74.2890625 5.51171875 74.2890625 Z " fill="#7FDEEA" transform="translate(48.48828125,10.7109375)"/>
<path d="M0 0 C3.125 1.875 3.125 1.875 5 5 C5.98876625 10.02622846 5.7769173 13.70513784 3.125 18.125 C-1.29486216 20.7769173 -4.97377154 20.98876625 -10 20 C-13.125 18.125 -13.125 18.125 -15 15 C-15.98876625 9.97377154 -15.7769173 6.29486216 -13.125 1.875 C-8.70513784 -0.7769173 -5.02622846 -0.98876625 0 0 Z " fill="#80DEEA" transform="translate(65,50)"/>
</svg>
