<?xml version="1.0" encoding="UTF-8"?>
<svg version="1.1" xmlns="http://www.w3.org/2000/svg" width="120" height="120">
<path d="M0 0 C0.79083984 0.00974854 1.58167969 0.01949707 2.39648438 0.02954102 C13.05574469 0.35251573 19.06473191 3.85623429 26.7265625 11.1796875 C32.59240514 16.70160451 37.46429436 20.85908378 45.67578125 20.79296875 C49.8599276 20.1857003 52.81644367 17.94692422 56.125 15.4375 C57.3625 14.5403125 57.3625 14.5403125 58.625 13.625 C59.12 13.233125 59.615 12.84125 60.125 12.4375 C59.81593508 19.70052573 56.53877687 24.72007181 51.67578125 30.015625 C45.49282458 35.63957463 38.27812511 36.98592846 30.25 36.875 C29.45916016 36.86525146 28.66832031 36.85550293 27.85351562 36.84545898 C17.19425531 36.52248427 11.18526809 33.01876571 3.5234375 25.6953125 C-2.34240514 20.17339549 -7.21429436 16.01591622 -15.42578125 16.08203125 C-19.6099276 16.6892997 -22.56644367 18.92807578 -25.875 21.4375 C-27.1125 22.3346875 -27.1125 22.3346875 -28.375 23.25 C-28.87 23.641875 -29.365 24.03375 -29.875 24.4375 C-29.56593508 17.17447427 -26.28877687 12.15492819 -21.42578125 6.859375 C-15.24282458 1.23542537 -8.02812511 -0.11092846 0 0 Z " fill="#00ACC1" transform="translate(29.875,59.5625)"/>
<path d="M0 0 C0.79083984 0.00974854 1.58167969 0.01949707 2.39648438 0.02954102 C14.37452683 0.39247472 20.67715737 5.25273897 29.125 13.4375 C34.49186161 18.22851809 38.42729652 20.97281292 45.74609375 20.828125 C49.87370415 20.15035646 52.84743857 17.92341566 56.125 15.4375 C57.3625 14.5403125 57.3625 14.5403125 58.625 13.625 C59.12 13.233125 59.615 12.84125 60.125 12.4375 C59.81593508 19.70052573 56.53877687 24.72007181 51.67578125 30.015625 C45.49282458 35.63957463 38.27812511 36.98592846 30.25 36.875 C29.45916016 36.86525146 28.66832031 36.85550293 27.85351562 36.84545898 C17.19425531 36.52248427 11.18526809 33.01876571 3.5234375 25.6953125 C-2.34240514 20.17339549 -7.21429436 16.01591622 -15.42578125 16.08203125 C-19.6099276 16.6892997 -22.56644367 18.92807578 -25.875 21.4375 C-27.1125 22.3346875 -27.1125 22.3346875 -28.375 23.25 C-28.87 23.641875 -29.365 24.03375 -29.875 24.4375 C-29.56593508 17.17447427 -26.28877687 12.15492819 -21.42578125 6.859375 C-15.24282458 1.23542537 -8.02812511 -0.11092846 0 0 Z " fill="#00ACC1" transform="translate(59.875,23.5625)"/>
</svg>
