<?xml version="1.0" encoding="UTF-8"?>
<svg version="1.1" xmlns="http://www.w3.org/2000/svg" width="120" height="120">
<path d="M0 0 C29.7 0 59.4 0 90 0 C90 29.7 90 59.4 90 90 C60.3 90 30.6 90 0 90 C0 60.3 0 30.6 0 0 Z " fill="#1976D2" transform="translate(15,15)"/>
<path d="M0 0 C1.22847656 0.00644531 2.45695312 0.01289062 3.72265625 0.01953125 C6.9375 0.1875 6.9375 0.1875 9.9375 1.1875 C9.9375 4.1575 9.9375 7.1275 9.9375 10.1875 C8.90625 9.8575 7.875 9.5275 6.8125 9.1875 C2.27518513 7.89243644 -1.54126205 7.68042068 -6.0625 9.1875 C-5.18749706 13.0277907 -4.62739008 14.7782429 -1.3828125 17.12890625 C-0.32835938 17.66386719 0.72609375 18.19882813 1.8125 18.75 C6.25992953 21.02835149 9.18647417 22.95314195 11.9375 27.1875 C12.56245824 32.8121242 12.09657697 36.33606037 8.9375 41.1875 C4.36260972 45.46723607 -0.51925471 45.39985737 -6.51171875 45.35546875 C-9.94962068 45.12908317 -12.815921 44.31674487 -16.0625 43.1875 C-16.0625 39.8875 -16.0625 36.5875 -16.0625 33.1875 C-15.0725 33.6825 -14.0825 34.1775 -13.0625 34.6875 C-8.89542977 36.48672381 -5.56889139 36.49301806 -1.0625 36.1875 C-0.0725 35.6925 -0.0725 35.6925 0.9375 35.1875 C0.93077013 32.81263857 0.93077013 32.81263857 -0.0625 30.1875 C-2.19628779 28.63565434 -4.13061899 27.41054467 -6.4375 26.1875 C-10.82565195 23.83054502 -14.0014044 21.91504794 -16.0625 17.1875 C-16.70234227 13.7750079 -16.66978725 10.60630227 -16.0625 7.1875 C-11.52930329 1.14323772 -7.33882782 -0.08488655 0 0 Z " fill="#F7FAFD" transform="translate(88.0625,54.8125)"/>
<path d="M0 0 C10.89 0 21.78 0 33 0 C33 2.64 33 5.28 33 8 C29.04 8 25.08 8 21 8 C21 20.21 21 32.42 21 45 C17.7 45 14.4 45 11 45 C11 32.79 11 20.58 11 8 C7.37 8 3.74 8 0 8 C0 5.36 0 2.72 0 0 Z " fill="#F6F9FD" transform="translate(36,55)"/>
</svg>
